<svg height="512" viewBox="0 0 58 58" width="512" xmlns="http://www.w3.org/2000/svg"><g id="Page-1" fill="none" fill-rule="evenodd"><g id="013---Date-Calendar" fill-rule="nonzero"><path id="Shape" d="m50 19v36c0 1.6568542-1.3431458 3-3 3h-44c-1.65685425 0-3-1.3431458-3-3v-36z" fill="#ecf0f1"/><path id="Shape" d="m23 34v18h-17c-.55228475 0-1-.4477153-1-1v-16c0-.5522847.44771525-1 1-1z" fill="#e64c3c"/><path id="Shape" d="m50 19v9.9c-.4970031.0687919-.9982634.1022092-1.5.1h-39c-5.25 0-9.5-3.58-9.5-8v-2z" fill="#d1d4d1"/><path id="Shape" d="m19 19h-19v-10c0-2.209139 1.790861-4 4-4h42c2.209139 0 4 1.790861 4 4v10z" fill="#e64c3c"/><path id="Shape" d="m33 51h-9v-4h4c.5522847 0 1-.4477153 1-1s-.4477153-1-1-1h-4v-4h1c.5522847 0 1-.4477153 1-1s-.4477153-1-1-1h-1v-4h4c.5522847 0 1-.4477153 1-1s-.4477153-1-1-1h-22c-1.1045695 0-2 .8954305-2 2v16c0 1.1045695.8954305 2 2 2h27c.5522847 0 1-.4477153 1-1s-.4477153-1-1-1zm-11 0h-4v-4h4zm-16-10h4v4h-4zm6 0h4v4h-4zm0-2v-4h4v4zm4 8v4h-4v-4zm6-2h-4v-4h4zm0-6h-4v-4h4zm-12-4v4h-4v-4zm-4 12h4v4h-4z" fill="#3f5c6c"/><g fill="#bdc3c7"><rect id="Rectangle-path" height="10" rx="2.5" width="5" x="6"/><rect id="Rectangle-path" height="10" rx="2.5" width="5" x="17"/><rect id="Rectangle-path" height="10" rx="2.5" width="5" x="28"/><rect id="Rectangle-path" height="10" rx="2.5" width="5" x="39"/></g><path id="Shape" d="m38 38.1c-.9209693-1.2991818-2.4076292-2.0796783-4-2.1-2.368 0-4 2.1-4 4.561 0 3 2.493 5.984 7.75 9.366.1525583.0969823.3474417.0969823.5 0 5.257-3.382 7.75-6.364 7.75-9.366 0-2.461-1.632-4.561-4-4.561-1.5923708.0203217-3.0790307.8008182-4 2.1z" fill="#e64c3c"/><path id="Shape" d="m19 19c0 4.42-4.25 8-9.5 8s-9.5-3.58-9.5-8z" fill="#95a5a5"/><path id="Shape" d="m58 19c0 3.99-3.46 7.3-8 7.9-.4970031.0687919-.9982634.1022092-1.5.1l-39 .0001028c5.25-.0001028 9.5-3.5801028 9.5-8.0001028-.0049777-1.2341712-.3361686-2.4450879-.96-3.51-.171754-.3129333-.1648122-.6934489.0182414-.9999095s.5148014-.4929645.8717586-.4900905h36.54c.2882047-.0042352.5632447.1204496.75.34 1.1343829 1.2887572 1.7663229 2.943162 1.78 4.66z" fill="#ecf0f1"/></g></g></svg>