<svg height="512" viewBox="0 0 58 58" width="512" xmlns="http://www.w3.org/2000/svg"><g id="Page-1" fill="none" fill-rule="evenodd"><g id="004---Love-Potion" fill-rule="nonzero"><path id="Shape" d="m36 6v7.09c.0108934 1.2008263.7281201 2.2825452 1.83 2.76 9.5274117 4.1839197 14.8177959 14.4732367 12.6773662 24.6563265-2.1404297 10.1830899-11.1256106 17.4717613-21.5312208 17.4658691-10.4056102-.0058921-19.3825309-7.3047347-21.51142682-17.490242-2.12889591-10.1855074 3.17313752-20.4688264 12.70528142-24.6419536 1.105178-.4680726 1.8250169-1.5497977 1.83-2.75v-7.09" fill="#67b9cc"/><path id="Shape" d="m51 36c.0048071 11.4477375-8.7703635 20.9860704-20.1788104 21.9337285-11.4084469.9476582-21.63711987-7.0120945-23.5211896-18.3037285 4.92 1.69 8.9 2.38 12.26 2.21l19.9-13.42c2.9114727-1.4476162 6.156161-2.0931021 9.4-1.87h.01c1.4042278 2.9522994 2.1319128 6.180761 2.13 9.45z" fill="#955ba5"/><rect id="Rectangle-path" fill="#2fa8cc" height="6" rx="3" width="22" x="18"/><g fill="#894b9d"><circle id="Oval" cx="16" cy="46" r="1"/><circle id="Oval" cx="43" cy="44" r="1"/><circle id="Oval" cx="35" cy="51" r="1"/><circle id="Oval" cx="22" cy="51.5" r="1"/><circle id="Oval" cx="46.5" cy="33.5" r="1"/></g><path id="Shape" d="m42 34.17c0 4.71-4.05 9.4-12.59 14.72-.2525523.1507336-.5674477.1507336-.82 0-2.8270698-1.6968035-5.4740499-3.6770127-7.9-5.91-3.16-3.03-4.69-5.92-4.69-8.81 0-3.87 2.65-7.17 6.5-7.17 2.5660033.0127191 4.9754326 1.2359678 6.5 3.3 1.5245674-2.0640322 3.9339967-3.2872809 6.5-3.3.2981148-.0019445.5958548.0214732.89.07 3.36.46 5.61 3.54 5.61 7.1z" fill="#df4d60"/><path id="Shape" d="m37 30.17c0 4.71-4.05 9.4-12.59 14.72-.2525523.1507336-.5674477.1507336-.82 0-1.03-.64-2-1.28-2.9-1.91-3.16-3.03-4.69-5.92-4.69-8.81 0-3.87 2.65-7.17 6.5-7.17 2.5660033.0127191 4.9754326 1.2359678 6.5 3.3 1.5245674-2.0640322 3.9339967-3.2872809 6.5-3.3.2981148-.0019445.5958548.0214732.89.07.4090503.982005.6164939 2.0362267.61 3.1z" fill="#ff5364"/><path id="Shape" d="m16 9.56c0 3-2.49 5.99-7.75 9.37-.15470054.0893164-.34529946.0893164-.5 0-1.47888073-.9284994-2.88012859-1.9752549-4.19-3.13-2.4-2.15-3.56-4.2-3.56-6.24 0-2.46 1.63-4.56 4-4.56 1.59274104.01885891 3.08002457.79968277 4 2.1.87273703-1.2345214 2.2605952-2.00391758 3.77-2.09.0763684-.00832096.1531976-.01166135.23-.01 2.37 0 4 2.1 4 4.56z" fill="#df4d60"/><path id="Shape" d="m12 6.56c0 3-2.49 5.99-7.75 9.37-.15470054.0893164-.34529946.0893164-.5 0-.06561896-.0398945-.12904396-.0832905-.19-.13-2.4-2.15-3.56-4.2-3.56-6.24 0-2.46 1.63-4.56 4-4.56 1.59274104.01885891 3.08002457.79968277 4 2.1.87273703-1.2345214 2.2605952-2.00391758 3.77-2.09.1539963.50220145.2315313 1.02472026.23 1.55z" fill="#ff5364"/><path id="Shape" d="m50 7.1c-.9209693-1.29918182-2.4076292-2.07967825-4-2.1-2.368 0-4 2.1-4 4.561 0 3 2.493 5.984 7.75 9.366.1525583.0969823.3474417.0969823.5 0 5.257-3.382 7.75-6.364 7.75-9.366 0-2.461-1.632-4.561-4-4.561-1.5923708.02032175-3.0790307.80081818-4 2.1z" fill="#df4d60"/><path id="Shape" d="m20 36c-.5522847 0-1-.4477153-1-1-.0507877-1.3410078.4596689-2.6425 1.4085844-3.5914156.9489156-.9489155 2.2504078-1.4593721 3.5914156-1.4085844.5522847 0 .9999999.4477153.9999999 1s-.4477152 1-.9999999 1c-.8080187-.0428255-1.5962169.2594682-2.1683743.8316257-.5721575.5721574-.8744512 1.3603556-.8316257 2.1683743 0 .5522847-.4477153 1-1 1z" fill="#fb7b76"/><path id="Shape" d="m11.391 33.29c-.0671967-.0003754-.1341908-.0074097-.2-.021-.540628-.1122003-.8880111-.6413328-.776-1.182.7949617-3.8484445 2.7782384-7.3501347 5.67-10.011.4065885-.3655105 1.0313491-.3367332 1.4026156.0646063.3712664.4013396.3513935 1.0264468-.0446156 1.4033937-2.584884 2.3789083-4.358174 5.5089224-5.07 8.949-.0964439.4652106-.5068995.79834-.982.797z" fill="#9fc9d3"/><path id="Shape" d="m20.351 21.22c-.4558146.0004901-.8542823-.3073201-.9689278-.7484817s.0835454-.9040265.4819278-1.1255183c.6738196-.372757 1.3709264-.70177 2.087-.985.5084968-.1855229 1.0723039.0672276 1.2721172.5702807.1998133.503053-.0369094 1.073775-.5341172 1.2877193-.6357793.2516564-1.2547224.5439258-1.853.875-.14822.082813-.3152145.1261971-.485.126z" fill="#9fc9d3"/><path id="Shape" d="m54 6.56c0 3-2.49 5.99-7.75 9.37-.1547005.0893164-.3452995.0893164-.5 0-.065619-.0398945-.129044-.0832905-.19-.13-2.4-2.15-3.56-4.2-3.56-6.24 0-2.46 1.63-4.56 4-4.56 1.592741.01885891 3.0800246.79968277 4 2.1.872737-1.2345214 2.2605952-2.00391758 3.77-2.09.1539963.50220145.2315313 1.02472026.23 1.55z" fill="#ff5364"/></g></g></svg>