<svg height="512" viewBox="0 0 58 58" width="512" xmlns="http://www.w3.org/2000/svg"><g id="Page-1" fill="none" fill-rule="evenodd"><g id="058---Love-Call" fill-rule="nonzero"><path id="Shape" d="m12.525 35.081c1.4382007 1.998594 3.0293094 3.8825818 4.759 5.635 1.7524182 1.7296906 3.636406 3.3207993 5.635 4.759.7929449.5639248 1.8781173.4681245 2.56-.226l3.161-3.161c.8964263-.896442 2.1122507-1.4000592 3.38-1.4000592s2.4835737.5036172 3.38 1.4000592l4.554 4.554c1.8661935 1.8669415 1.8661935 4.8930585 0 6.76-4.349 4.348-10.9 5.36-16.773 4.087-5.063-1.1-9.214-4.108-12.827-7.694-.36-.36-.707-.721-1.061-1.088s-.728-.7-1.088-1.061c-3.586-3.613-6.591-7.764-7.694-12.827-1.273-5.869-.261-12.419 4.089-16.773 1.86694154-1.8661935 4.89305846-1.8661935 6.76 0l4.552 4.554c.896442.8964263 1.4000592 2.1122507 1.4000592 3.38s-.5036172 2.4835737-1.4000592 3.38l-3.161 3.161c-.6941245.6818827-.7899248 1.7670551-.226 2.56z" fill="#2fa8cc"/><path id="Shape" d="m5.149 34.052c-.4302393-.0003267-.81204447-.2758064-.948-.684-2.291-6.872.815-10.083.948-10.217.25151498-.2540158.61944023-.3545545.96518188-.2637441.34574166.0908105.61677333.3591738.711.704.09422668.3448263-.0026669.7137283-.25418188.9677441-.116.122-2.338 2.582-.473 8.176.10197527.3050975.05095002.6406234-.1371132.9016132-.18806323.2609897-.49019847.4155716-.8118868.4153868z" fill="#67b9cc"/><path id="Shape" d="m29.378 54.639c-1.616615-.0222956-3.2189784-.3059595-4.745-.84-.5246705-.1747981-.8082981-.7418295-.6334999-1.2665.1747981-.5246705.7418294-.8082981 1.2664999-.6335 5.616 1.87 8.145-.442 8.169-.465.3923789-.3789722 1.0160848-.3735524 1.4018186.0121814s.3911536 1.0094397.0121814 1.4018186c-1.5323389 1.2659624-3.4866718 1.9057376-5.471 1.791z" fill="#67b9cc"/><g fill="#35495e"><path id="Shape" d="m17 18c-.4043959-.0000863-.7689341-.2437275-.923678-.6173454-.1547439-.373618-.0692299-.8036603.216678-1.0896546l4-4c.3923789-.3789722 1.0160848-.3735524 1.4018186.0121814s.3911536 1.0094397.0121814 1.4018186l-4 4c-.1874927.1875494-.4418052.2929434-.707.293z"/><path id="Shape" d="m14 15.95c-.5522847 0-1-.4477153-1-1v-4.95c0-.55228475.4477153-1 1-1s1 .44771525 1 1v4.95c0 .5522847-.4477153 1-1 1z"/><path id="Shape" d="m24 21h-4.95c-.5522847 0-1-.4477153-1-1s.4477153-1 1-1h4.95c.5522847 0 1 .4477153 1 1s-.4477153 1-1 1z"/></g><path id="Shape" d="m51.11 20.64c4.65-4.09 6.89-7.96 6.89-11.84 0-4.75-3.26-8.8-8-8.8-3.1553329.01618968-6.1190255 1.51655907-8 4.05-1.8809745-2.53344093-4.8446671-4.03381032-8-4.05-4.74 0-8 4.05-8 8.8 0 4.37 2.84 8.72 8.76 13.4l10.421 2.506z" fill="#df4d60"/><path id="Shape" d="m30 10c-.5522847 0-1-.44771525-1-1-.0585458-1.60718592.5552888-3.16607472 1.693917-4.30185638s2.6990487-1.74571223 4.306083-1.68314362c.5522847 0 1 .44771525 1 1s-.4477153 1-1 1c-1.0711072-.043959-2.1119348.36123833-2.8713822 1.1178378s-1.1685523 1.79589737-1.1286178 2.8671622c0 .55228475-.4477153 1-1 1z" fill="#ff5364"/><path id="Shape" d="m57.36 29.823c-1.77 4.12-6.95 6.74-16.19 8.27-.2667087.0447345-.5353283-.0681636-.69-.29-2.82-4.15-4.61-7.68-5.39-10.69-.6960902-2.2089038-.622054-4.5886385.21-6.75.1552047-.3640286.3391179-.7151357.55-1.05 1.66-2.71 4.74-4.1 7.64-2.85 2.1850182.9637078 3.7762936 2.9156228 4.28 5.25 2.038007-1.2408487 4.5459855-1.4340559 6.75-.52 3.27 1.4 4.28 5.25 2.84 8.63z" fill="#ff5364"/><path id="Shape" d="m38.9 23.116c-.1351904.0004528-.2690064-.0271276-.393-.081-.5073382-.2172546-.7427522-.804447-.526-1.312.5090009-1.391591 1.7913802-2.3516107 3.27-2.448.6751315-.0376273 1.3503766.0718995 1.979.321.5004962.2205017.7310056.8021768.5174145 1.3056609-.213591.5034842-.7920378.741979-1.2984145.5353391-.486348-.2449188-1.0548784-.2674281-1.5590674-.0617266-.5041889.2057014-.8947159.6194915-1.0709326 1.1347266-.1575827.3676038-.5190439.6059558-.919.606z" fill="#fb7b76"/></g></g></svg>