<svg id="Layer_1" enable-background="new 0 0 512 512" height="512" viewBox="0 0 512 512" width="512" xmlns="http://www.w3.org/2000/svg"><path d="m256 512c-8.809 0-16-7.136-16-16v-224h32v224c0 8.837-7.163 16-16 16z" fill="#c79a83"/><path d="m400 40c-10.247 30.74-24 65.878-24 120 0 65.897-53.139 119.349-118.76 119.98 25.818-.647 46.76-21.774 46.76-47.98 0-48.69-18.12-93.15-48-126.99 35.334-40.134 87.081-65.01 144-65.01z" fill="#fe929f"/><path d="m333.62 251.5c-20.63 17.53-47.26 28.2-76.38 28.48 25.818-.647 46.76-21.774 46.76-47.98 0-48.69-18.12-93.15-48-126.99 6.679-7.586 14.559-15.248 23.1-22.16 47.8 50.782 63.828 131.299 54.52 168.65z" fill="#ea8692"/><path d="m304 232c0 26.694-21.909 48.647-49.24 47.98-65.7-.65-118.76-54.12-118.76-119.98 0-53.172-13.185-87.556-24-120 106.689 0 192 86.606 192 192z" fill="#ea8692"/><path d="m303.89 225.64c-7.445 4.285-15.701 6.36-23.89 6.36-65.942 0-120-53.404-120-120 0-22.835-2.627-45.468-7.88-67.8 85.028 18.067 148.875 92.279 151.77 181.44z" fill="#fe929f"/><path d="m318.16 58.27c-24.257 11.442-45.405 27.709-62.16 46.74-16.757-19.034-37.902-35.298-62.16-46.74l62.16-58.27z" fill="#ffa4b8"/><path d="m456 320c0 79.518-64.478 144-144 144h-40c0-80.014 64.98-144 144-144z" fill="#90c94f"/><path d="m240 440h-40c-79.518 0-144-64.478-144-144h40c79.14 0 144 64.116 144 144z" fill="#90c94f"/><g fill="#99d856"><path d="m450.37 320c-17.361 60.104-72.757 104-138.37 104-17.625 0-28.457-19.262-19.327-34.37 25.577-42.325 71.7-69.63 123.327-69.63z"/><path d="m219.327 365.63c9.116 15.085-1.675 34.37-19.327 34.37-65.619 0-121.01-43.9-138.37-104h34.37c51.573 0 97.727 27.267 123.327 69.63z"/></g></svg>